<svg viewBox="0 0 431 69" xmlns="http://www.w3.org/2000/svg" fill-rule="evenodd" clip-rule="evenodd" stroke-linejoin="round" stroke-miterlimit="2"><path d="M.762.473L.221.464l-.262-.473.279-.464.541.009.262.473-.279.464zM.249.418l.487.008.251-.417-.236-.427-.487-.008-.251.417.236.427z" fill="url(#_Linear1)" fill-rule="nonzero" transform="scale(63.68718 -63.68718) rotate(89 .76 -.287)"/><path d="M1.001.08A.05.05 0 01.956.014l-.067-.12-.24.4L.588.293a.049.049 0 01-.037.016.05.05 0 01-.048-.051.05.05 0 01.05-.048.05.05 0 01.037.017l.022.001.241-.4-.12-.217-.227-.004a.046.046 0 01-.037.016.048.048 0 01-.048-.05c0-.027.023-.049.05-.048a.05.05 0 01.037.017l.263.005.242.435a.05.05 0 01.039.049.05.05 0 01-.051.049zM.924.236a.046.046 0 01-.033.023L.755.485.257.477a.05.05 0 01-.062.009.05.05 0 01-.017-.068.05.05 0 01.068-.017.063.063 0 01.012.01l.138.003L.17.006l.031-.052a.047.047 0 01.004-.04.05.05 0 01.068-.017.049.049 0 01.017.067.052.052 0 01-.034.024L.245.007l.226.408.248.005.116-.194A.05.05 0 01.84.185a.049.049 0 01.091.027.044.044 0 01-.007.024zM.701-.121a.05.05 0 01-.07-.06L.62-.201.153-.209.026.003l.109.198a.048.048 0 01.033.024.05.05 0 01-.019.067.05.05 0 01-.067-.019.047.047 0 01-.004-.04L-.05.002l.257-.427A.05.05 0 01.23-.483a.05.05 0 01.067.019.05.05 0 01-.019.067.047.047 0 01-.015.006l-.071.118.466.008.03.052a.05.05 0 01.032.025.035.035 0 01.006.024.05.05 0 01-.025.043z" fill="url(#_Linear2)" fill-rule="nonzero" transform="scale(45.8019 -45.8019) rotate(89 .958 -.292)"/><g><path d="M125.382 14.575c.552 0 .828.207.828.62v2.608c0 .414-.276.621-.828.621h-10.929c-.22 0-.33.083-.33.249v38.745c0 .414-.277.621-.829.621h-4.222c-.552 0-.828-.207-.828-.62V18.672c0-.166-.11-.249-.331-.249H97.647c-.552 0-.828-.207-.828-.62v-2.609c0-.413.276-.62.828-.62h27.735zM160.402 15.195c0-.413.276-.62.828-.62h4.222c.552 0 .828.207.828.62v42.223c0 .414-.276.621-.828.621h-4.222c-.552 0-.828-.207-.828-.62V38.48c0-.165-.11-.248-.331-.248h-14.737c-.22 0-.331.083-.331.248v18.938c0 .414-.276.621-.828.621h-4.222c-.552 0-.828-.207-.828-.62V15.194c0-.413.276-.62.828-.62h4.222c.552 0 .828.207.828.62v18.877c0 .165.11.248.331.248h14.737c.22 0 .33-.083.33-.248V15.195zM205.522 58.04c-.496 0-.828-.166-.993-.497l-8.445-19.187c-.055-.124-.165-.186-.33-.186h-7.204c-.22 0-.33.083-.33.248v19c0 .414-.277.621-.829.621h-4.222c-.552 0-.828-.207-.828-.62V15.194c0-.413.276-.62.828-.62h13.66c4.03 0 7.286 1.103 9.77 3.318 2.483 2.215 3.725 5.105 3.725 8.665 0 2.691-.773 5.01-2.318 6.955-1.545 1.945-3.643 3.311-6.292 4.098-.22.041-.304.145-.248.31l9.024 19.435.083.249c0 .29-.249.434-.746.434h-4.305zM188.55 18.423c-.22 0-.33.083-.33.249v15.71c0 .165.11.247.33.247h7.452c2.538 0 4.58-.738 6.126-2.207 1.545-1.47 2.318-3.422 2.318-5.865 0-2.442-.773-4.408-2.318-5.898-1.545-1.49-3.588-2.236-6.126-2.236h-7.452zM249.401 17.803c0 .414-.276.621-.828.621h-19.207c-.22 0-.331.083-.331.249v15.399c0 .165.11.248.33.248h12.088c.552 0 .828.207.828.62v2.67c0 .415-.276.622-.828.622h-12.087c-.22 0-.331.083-.331.248v15.461c0 .166.11.249.33.249h19.208c.552 0 .828.207.828.62v2.608c0 .414-.276.621-.828.621h-24.588c-.552 0-.828-.207-.828-.62V15.194c0-.413.276-.62.828-.62h24.588c.552 0 .828.207.828.62v2.608zM286.325 58.04c-.496 0-10.652-36.387-10.762-36.76l-7.617 28.253c-.11 0-2.484 7.947-2.484 7.947-.055.373-.358.56-.91.56h-4.223c-.276 0-.483-.063-.62-.187-.139-.124-.18-.29-.125-.497l12.419-42.223c.11-.372.414-.558.91-.558h4.968c.552 0 .855.186.91.558l12.585 42.223v.124c0 .373-.249.56-.745.56h-4.306zm-11.093-36.76h.33c-.054-.124-.11-.186-.165-.186-.055 0-.11.062-.165.187zM323.83 14.575c.551 0 .827.207.827.62v2.608c0 .414-.276.621-.828.621h-10.928c-.22 0-.331.083-.331.249v38.745c0 .414-.276.621-.828.621h-4.222c-.552 0-.828-.207-.828-.62V18.672c0-.166-.11-.249-.331-.249h-10.266c-.552 0-.828-.207-.828-.62v-2.609c0-.413.276-.62.828-.62h27.734zM338.4 58.04c-.552 0-.828-.208-.828-.622V15.195c0-.413.276-.62.828-.62h4.223c.552 0 .828.207.828.62v42.223c0 .414-.276.621-.828.621H338.4zM382.693 15.195c0-.413.276-.62.828-.62h4.14c.551 0 .827.207.827.62v42.223c0 .414-.276.621-.828.621h-4.884c-.442 0-.745-.165-.91-.496L365.72 25.44c-.055-.124-.138-.18-.248-.159-.11.02-.166.097-.166.22l.083 31.916c0 .414-.276.621-.828.621h-4.222c-.552 0-.828-.207-.828-.62V15.194c0-.413.276-.62.828-.62h4.802c.441 0 .745.165.91.496l16.227 32.164c.055.124.138.173.248.152.11-.02.166-.09.166-.214V15.195zM429.883 14.575c.552 0 .828.207.828.62v2.608c0 .414-.276.621-.828.621h-10.928c-.22 0-.331.083-.331.249v38.745c0 .414-.276.621-.828.621h-4.222c-.552 0-.828-.207-.828-.62V18.672c0-.166-.11-.249-.331-.249h-10.266c-.552 0-.828-.207-.828-.62v-2.609c0-.413.276-.62.828-.62h27.734z" fill-rule="nonzero" stroke="gray" stroke-width=".3173632"/></g><defs><linearGradient id="_Linear1" x1="0" y1="0" x2="1" y2="0" gradientUnits="userSpaceOnUse" gradientTransform="matrix(1 0 0 -1 0 0)"><stop offset="0" stop-color="#1268b3"/><stop offset="1" stop-color="#41c5e7"/></linearGradient><linearGradient id="_Linear2" x1="0" y1="0" x2="1" y2="0" gradientUnits="userSpaceOnUse" gradientTransform="matrix(1 0 0 -1 0 .002)"><stop offset="0" stop-color="#1268b3"/><stop offset="1" stop-color="#41c5e7"/></linearGradient></defs></svg>